<svg width="60" height="60" viewBox="0 0 80 80" fill="none" xmlns="http://www.w3.org/2000/svg">
<rect x="0.5" y="0.5" width="79" height="79" rx="39.5" fill="#00BC65" fill-opacity="0.1"/>
<rect x="0.5" y="0.5" width="79" height="79" rx="39.5" stroke="#00BC65" stroke-dasharray="3 2"/>
<path fill-rule="evenodd" clip-rule="evenodd" d="M39.3359 51.0607C39.549 51.1887 39.7772 51.2454 39.9987 51.2425C40.2202 51.2454 40.4484 51.1887 40.6615 51.0607L42.5537 49.9255C46.2645 47.699 50.8029 47.3354 54.8209 48.9425C56.303 49.5354 57.9154 48.4439 57.9154 46.8475V27.416C57.9154 26.4527 57.3289 25.5865 56.4345 25.2288C51.2594 23.1587 45.414 23.6271 40.6345 26.4948L39.9987 26.8763L39.3629 26.4948C34.5833 23.6271 28.738 23.1587 23.5628 25.2288C22.6685 25.5865 22.082 26.4527 22.082 27.416V46.8475C22.082 48.4439 23.6943 49.5354 25.1766 48.9425C29.1946 47.3354 33.7329 47.699 37.4437 49.9255L39.3359 51.0607ZM24.582 27.514V46.492C29.2417 44.7454 34.4517 45.2149 38.73 47.7817L38.7487 47.793V29.0418L38.0765 28.6385C33.9949 26.1896 29.0093 25.7757 24.582 27.514ZM41.2674 47.7817L41.2487 47.793V29.0418L41.9209 28.6385C46.0025 26.1896 50.9882 25.7757 55.4154 27.514V46.492C50.7557 44.7454 45.5457 45.2149 41.2674 47.7817Z" fill="#00BC65"/>
<path d="M35.4588 51.7375C32.0857 49.7698 27.9147 49.7698 24.5416 51.7375L24.3704 51.8373C23.774 52.1851 23.5726 52.9505 23.9205 53.5468C24.2683 54.1431 25.0337 54.3446 25.63 53.9968L25.8013 53.8968C28.396 52.3833 31.6044 52.3833 34.1991 53.8968L36.0112 54.954C38.4762 56.3918 41.5242 56.3918 43.9892 54.954L45.8012 53.8968C48.396 52.3833 51.6044 52.3833 54.1992 53.8968L54.3704 53.9968C54.9667 54.3446 55.732 54.1431 56.0799 53.5468C56.4277 52.9505 56.2264 52.1851 55.63 51.8373L55.4589 51.7375C52.0857 49.7698 47.9147 49.7698 44.5415 51.7375L42.7295 52.7945C41.043 53.7783 38.9574 53.7783 37.2709 52.7945L35.4588 51.7375Z" fill="#00BC65"/>
</svg>