<svg width="582" height="351" viewBox="0 0 582 351" fill="none" xmlns="http://www.w3.org/2000/svg">
<g clip-path="url(#clip0_181_286)">
<path d="M567.138 339.041L561.39 341.253L549.207 322.279L557.69 319.014L567.138 339.041Z" fill="#FFB6B6"/>
<path d="M519.642 343.953L513.394 343.953L510.422 322.184H519.643L519.642 343.953Z" fill="#FFB6B6"/>
<path d="M519.861 349.841L500.648 349.841V349.621C500.649 347.83 501.437 346.112 502.839 344.845C504.241 343.578 506.143 342.866 508.127 342.866L511.636 340.461L518.184 342.866L519.861 342.866L519.861 349.841Z" fill="#2F2E41"/>
<path d="M570.634 342.809L552.959 349.613L552.864 349.411C552.087 347.763 552.066 345.904 552.806 344.241C553.546 342.579 554.987 341.251 556.812 340.548L558.997 337.093L566.064 336.987L567.607 336.393L570.634 342.809Z" fill="#2F2E41"/>
<path d="M513.513 215.113L504.018 267.342L506.602 275.126L503.211 280.638L508.191 329.048L506.169 333.068L511.817 336.214H523.309L523.919 292.388L526.757 285.954V282.407L532.536 255.683L533.6 286.252L535.281 292.697L533.869 297.286L535.714 300.5L551.525 331.17H564.412L563.415 324.234C565.724 323.178 559.949 320.092 559.394 317.808L561.291 313.952L559.394 306.667L557.654 292.432L559.489 262.385L558.625 221.923C554.299 216.683 549.499 212.642 543.551 211.51L513.513 215.113Z" fill="#2F2E41"/>
<path d="M536.636 146.331C543.828 146.331 549.658 141.064 549.658 134.567C549.658 128.07 543.828 122.803 536.636 122.803C529.444 122.803 523.613 128.07 523.613 134.567C523.613 141.064 529.444 146.331 536.636 146.331Z" fill="#FFB6B6"/>
<path d="M482.942 227.454C482.78 226.793 482.78 226.109 482.942 225.448C483.105 224.787 483.425 224.167 483.882 223.63C484.338 223.094 484.92 222.654 485.585 222.342C486.25 222.031 486.982 221.854 487.731 221.826L492.977 206.072L499.041 212.635L493.13 226.589C493.099 227.728 492.607 228.817 491.747 229.65C490.886 230.483 489.717 231.003 488.461 231.109C487.206 231.216 485.95 230.903 484.933 230.229C483.916 229.555 483.207 228.568 482.942 227.454Z" fill="#FFB6B6"/>
<path d="M516.973 162.701L514.622 158.82L511.592 159.734C511.592 159.734 508.248 161.683 503.565 169.043C501.399 172.447 496.717 194.274 496.717 194.274L485.773 220.452L496.93 222.156L506.24 200.583L517.032 179.937L516.973 162.701Z" fill="#0BA06E"/>
<path d="M536.153 214.948C545.322 214.948 554.574 216.579 558.362 222.409C558.263 221.141 558.015 218.943 557.757 216.926L556.809 211.508L557.77 206.539L559.039 205.392L556.766 203.339L558.317 192.968L563.437 168.536C563.838 166.614 563.525 164.626 562.546 162.881C561.567 161.136 559.978 159.733 558.025 158.888L553.106 156.752L545.132 150.07L530.707 149.973L526.001 155.499L513.613 159.3L515.693 198.16L514.33 201.033C514.635 201.286 515.28 201.828 515.629 202.176C516.123 202.67 515.494 205.21 515.075 206.681L514.499 210.598L516.311 211.768L513.955 214.282L513.484 217.473C515.824 216.974 525.938 214.948 536.153 214.948Z" fill="#0BA06E"/>
<path d="M539.965 145.755C540.021 145.644 540.076 145.533 540.132 145.422C540.11 145.422 540.089 145.425 540.068 145.426L539.965 145.755Z" fill="#2F2E41"/>
<path d="M550.021 123.336C549.403 122.809 548.599 122.495 547.751 122.449C546.909 122.474 546.055 123.161 546.229 123.906C544.682 121.432 542.221 119.529 539.275 118.531C536.33 117.534 533.091 117.505 530.124 118.45C528.031 119.117 525.979 120.452 525.498 122.409C525.451 122.923 525.282 123.422 525.001 123.871C524.758 124.111 524.442 124.281 524.093 124.361C523.744 124.441 523.376 124.427 523.036 124.32L523.015 124.315C522.898 124.279 522.773 124.275 522.654 124.305C522.535 124.334 522.429 124.395 522.349 124.479C522.269 124.564 522.218 124.668 522.205 124.779C522.191 124.889 522.214 125.001 522.271 125.1L522.864 126.097C522.117 126.248 521.342 126.233 520.603 126.054C520.48 126.025 520.35 126.031 520.232 126.071C520.113 126.111 520.01 126.183 519.939 126.278C519.867 126.373 519.83 126.485 519.832 126.6C519.834 126.714 519.875 126.825 519.95 126.918C520.934 128.134 522.219 129.126 523.702 129.815C525.186 130.504 526.826 130.87 528.494 130.885C530.86 130.872 533.251 130.136 535.554 130.627C536.444 130.817 537.277 131.185 537.99 131.704C538.703 132.223 539.278 132.879 539.673 133.625C540.069 134.37 540.275 135.187 540.275 136.014C540.276 136.841 540.072 137.657 539.678 138.403C540.385 137.704 541.753 137.87 542.477 138.555C542.81 138.922 543.056 139.347 543.2 139.803C543.344 140.26 543.383 140.738 543.315 141.208C543.122 142.649 542.648 144.048 541.916 145.34C544.714 145.263 547.418 144.411 549.663 142.9C551.908 141.39 553.586 139.293 554.47 136.894C555.354 134.494 555.401 131.908 554.606 129.483C553.81 127.059 552.21 124.913 550.021 123.336Z" fill="#2F2E41"/>
<path d="M129.15 79.4166C147.031 79.4166 161.527 66.3221 161.527 50.1692C161.527 34.0164 147.031 20.9219 129.15 20.9219C111.269 20.9219 96.7734 34.0164 96.7734 50.1692C96.7734 66.3221 111.269 79.4166 129.15 79.4166Z" fill="#0BA06E"/>
<path d="M38.1515 137.17C21.9061 104.709 22.5051 63.5637 47.7174 36.1719C56.1524 74.1551 79.1882 108.219 112.749 132.336C125.729 141.595 141.234 150.672 144.78 165.265C146.986 174.346 143.859 183.95 138.452 191.859C133.045 199.769 125.508 206.276 118.056 212.688L117.22 214.882C84.7977 194.604 54.397 169.631 38.1515 137.17Z" fill="#F2F2F2"/>
<path d="M48.42 36.5674C42.6177 65.269 46.9281 95.831 61.0314 122.127C64.0805 127.812 67.7212 133.34 72.5957 137.912C77.4723 142.487 83.3031 145.366 90.0106 147.135C96.1426 148.753 102.622 149.765 108.212 152.701C114.105 155.796 117.761 160.988 119.186 166.942C120.929 174.227 119.67 181.643 118.16 188.857C116.483 196.867 114.601 205.163 117.031 213.215C117.325 214.19 115.632 214.546 115.338 213.572C111.111 199.563 119.33 185.746 118.181 171.662C117.645 165.09 114.913 158.624 108.675 154.816C103.22 151.486 96.5393 150.437 90.3148 148.847C83.779 147.179 77.9094 144.63 72.9148 140.402C67.8056 136.077 63.918 130.667 60.7214 125.077C53.5122 112.471 48.7599 98.5816 46.2456 84.5976C43.3543 68.5249 43.528 52.1238 46.759 36.104C46.9595 35.1126 48.6191 35.5824 48.42 36.5674Z" fill="white"/>
<path d="M55.9477 113.799C50.6847 115.322 44.9935 115.107 39.8904 113.19C34.7873 111.273 30.6047 107.779 28.0895 103.334C27.584 102.433 29.1103 101.681 29.6165 102.583C31.9502 106.727 35.8467 109.98 40.6027 111.757C45.3587 113.533 50.661 113.715 55.5525 112.27C56.6159 111.957 57.0051 113.488 55.9477 113.799Z" fill="white"/>
<path d="M86.782 146.686C92.0411 137.653 93.3382 127.162 90.4147 117.303C90.1242 116.327 91.817 115.971 92.1072 116.946C95.1283 127.21 93.7538 138.126 88.2582 147.514C87.7337 148.409 86.2603 147.575 86.782 146.686Z" fill="white"/>
<path d="M45.5885 69.0368C47.7609 68.8306 49.8426 68.1402 51.6466 67.0275C53.4506 65.9149 54.9204 64.415 55.9241 62.6624C56.4358 61.7623 57.9087 62.5968 57.4004 63.4911C56.2815 65.4228 54.656 67.0775 52.6658 68.3107C50.6757 69.544 48.3815 70.3182 45.9838 70.5658C45.7599 70.6062 45.5274 70.5682 45.3335 70.4593C45.1396 70.3505 44.9989 70.179 44.9399 69.9798C44.8887 69.7771 44.9281 69.5644 45.0495 69.3878C45.171 69.2112 45.3647 69.0851 45.5885 69.0368Z" fill="white"/>
<path d="M181.236 36.4902C180.934 37.0605 180.632 37.6307 180.337 38.2127C176.324 45.8983 173.008 53.8659 170.423 62.0367C170.212 62.6655 170.008 63.3057 169.818 63.9387C163.822 83.6839 161.935 104.263 164.255 124.63C165.187 132.734 166.799 140.762 169.079 148.645C172.228 159.531 176.602 171.108 175.615 181.979C175.526 183.114 175.359 184.243 175.116 185.36L120.247 215.634C120.084 215.646 119.928 215.67 119.765 215.683L117.635 216.982C117.486 216.583 117.341 216.166 117.192 215.767C117.105 215.536 117.029 215.298 116.942 215.066C116.887 214.91 116.834 214.754 116.775 214.615C116.756 214.563 116.738 214.511 116.728 214.47C116.669 214.332 116.63 214.198 116.579 214.071C115.761 211.743 114.96 209.406 114.175 207.059C114.167 207.048 114.167 207.048 114.172 207.03C108.245 189.136 103.919 170.639 102.839 152.136C102.807 151.579 102.766 151.011 102.759 150.441C102.323 142.098 102.643 133.737 103.715 125.442C104.318 120.901 105.176 116.391 106.284 111.929C109.172 100.403 114.048 89.3604 120.735 79.2043C134.068 58.9598 154.42 42.7928 179.328 36.9219C179.965 36.7721 180.591 36.6287 181.236 36.4902Z" fill="#F2F2F2"/>
<path d="M181.538 37.1869C157.776 56.9477 140.849 83.6941 134.583 112.361C133.229 118.558 132.452 124.952 133.296 131.254C134.141 137.558 136.878 143.029 141.054 148.089C144.872 152.716 149.371 157.049 151.878 162.433C154.52 168.108 153.979 174.243 151.148 179.772C147.684 186.536 141.736 191.773 135.723 196.712C129.046 202.195 122.014 207.796 118.587 215.546C118.172 216.485 116.584 215.848 116.998 214.91C122.96 201.426 138.73 194.864 147.2 182.994C151.152 177.455 153.281 170.806 150.838 164.373C148.702 158.748 144.067 154.276 140.156 149.622C136.05 144.735 133.062 139.508 131.892 133.415C130.695 127.183 131.197 120.749 132.37 114.547C135.016 100.561 140.478 86.8866 147.791 74.3537C156.194 59.948 167.264 46.9472 180.521 35.9135C181.342 35.2309 182.354 36.5087 181.538 37.1869Z" fill="white"/>
<path d="M136.076 102.947C130.858 101.301 126.458 98.0331 123.661 93.727C120.864 89.421 119.853 84.357 120.807 79.4395C121.004 78.4451 122.724 78.6749 122.527 79.6706C121.629 84.2483 122.571 88.9653 125.185 92.9703C127.798 96.9753 131.911 100.004 136.779 101.511C137.837 101.839 137.127 103.273 136.076 102.947Z" fill="white"/>
<path d="M138.776 145.974C148.995 141.623 157.023 133.951 161.259 124.49C161.678 123.552 163.267 124.189 162.848 125.125C158.42 134.964 150.048 142.932 139.402 147.439C138.387 147.868 137.766 146.401 138.776 145.974Z" fill="white"/>
<path d="M157.638 61.5718C159.51 62.5886 161.632 63.1695 163.814 63.2623C165.996 63.3551 168.169 62.9569 170.139 62.1035C171.147 61.6631 171.767 63.1305 170.765 63.5681C168.584 64.5018 166.184 64.939 163.773 64.8412C161.362 64.7435 159.014 64.114 156.934 63.0075C156.729 62.9181 156.568 62.7612 156.486 62.5689C156.404 62.3765 156.406 62.1631 156.491 61.9719C156.586 61.7822 156.759 61.6338 156.974 61.5589C157.188 61.484 157.427 61.4886 157.638 61.5718Z" fill="white"/>
<path d="M311.128 101.615C294.883 69.1546 295.482 28.009 320.694 0.617188C329.129 38.6004 352.165 72.6642 385.726 96.7817C398.706 106.04 414.21 115.117 417.756 129.711C419.963 138.791 416.835 148.395 411.428 156.305C406.021 164.214 398.484 170.721 391.033 177.133L390.197 179.328C357.774 159.049 327.374 134.076 311.128 101.615Z" fill="#F2F2F2"/>
<path d="M321.397 1.01271C315.594 29.7143 319.905 60.2763 334.008 86.5724C337.057 92.2575 340.698 97.7849 345.572 102.357C350.449 106.932 356.28 109.811 362.987 111.581C369.119 113.198 375.599 114.211 381.189 117.147C387.081 120.241 390.738 125.433 392.162 131.387C393.905 138.672 392.646 146.089 391.136 153.303C389.46 161.312 387.578 169.608 390.007 177.66C390.302 178.636 388.609 178.991 388.315 178.017C384.088 164.008 392.306 150.192 391.157 136.107C390.621 129.535 387.89 123.069 381.652 119.261C376.197 115.931 369.516 114.882 363.291 113.293C356.756 111.624 350.886 109.075 345.891 104.848C340.782 100.523 336.895 95.1122 333.698 89.5224C326.489 76.9161 321.736 63.0269 319.222 49.0429C316.331 32.9702 316.505 16.5691 319.736 0.54934C319.936 -0.442111 321.596 0.0277613 321.397 1.01271Z" fill="white"/>
<path d="M328.924 78.2441C323.661 79.7678 317.97 79.5519 312.867 77.6349C307.764 75.718 303.581 72.2248 301.066 67.7792C300.561 66.8781 302.087 66.1261 302.593 67.0284C304.927 71.1721 308.823 74.4257 313.579 76.202C318.335 77.9783 323.638 78.1603 328.529 76.7151C329.593 76.4022 329.982 77.933 328.924 78.2441Z" fill="white"/>
<path d="M359.759 111.131C365.018 102.098 366.315 91.607 363.391 81.7488C363.101 80.7723 364.794 80.4164 365.084 81.3918C368.105 91.6556 366.73 102.571 361.235 111.96C360.71 112.854 359.237 112.021 359.759 111.131Z" fill="white"/>
<path d="M318.565 33.4802C320.737 33.2739 322.819 32.5835 324.623 31.4709C326.427 30.3583 327.897 28.8584 328.901 27.1058C329.412 26.2057 330.885 27.0402 330.377 27.9345C329.258 29.8661 327.633 31.5209 325.642 32.7541C323.652 33.9874 321.358 34.7616 318.96 35.0091C318.736 35.0496 318.504 35.0115 318.31 34.9027C318.116 34.7938 317.975 34.6224 317.916 34.4232C317.865 34.2205 317.905 34.0078 318.026 33.8312C318.148 33.6546 318.341 33.5285 318.565 33.4802Z" fill="white"/>
<path d="M454.216 0.935547C453.914 1.5058 453.613 2.07606 453.318 2.65798C449.304 10.3437 445.988 18.3112 443.403 26.482C443.192 27.1108 442.989 27.751 442.798 28.384C436.802 48.1292 434.916 68.7085 437.236 89.0756C438.167 97.1794 439.78 105.207 442.06 113.09C445.209 123.977 449.582 135.554 448.595 146.424C448.506 147.559 448.34 148.688 448.096 149.805L393.228 180.079C393.065 180.092 392.909 180.115 392.745 180.128L390.616 181.427C390.467 181.028 390.322 180.611 390.173 180.212C390.085 179.981 390.01 179.743 389.922 179.512C389.868 179.356 389.814 179.199 389.755 179.061C389.737 179.009 389.719 178.956 389.708 178.916C389.649 178.777 389.611 178.643 389.559 178.517C388.741 176.188 387.94 173.851 387.156 171.505C387.148 171.493 387.148 171.493 387.152 171.475C381.225 153.582 376.9 135.084 375.819 116.581C375.787 116.024 375.747 115.457 375.739 114.886C375.304 106.544 375.623 98.1827 376.696 89.8872C377.299 85.3465 378.156 80.8363 379.264 76.3739C382.152 64.8488 387.029 53.8058 393.715 43.6496C407.048 23.4052 427.4 7.23809 452.308 1.36721C452.946 1.21744 453.571 1.074 454.216 0.935547Z" fill="#F0F0F0"/>
<path d="M454.519 1.63218C430.757 21.393 413.829 48.1395 407.564 76.8059C406.209 83.0035 405.432 89.3969 406.277 95.6989C407.122 102.004 409.858 107.474 414.035 112.535C417.853 117.161 422.351 121.494 424.858 126.878C427.5 132.554 426.959 138.688 424.128 144.217C420.665 150.982 414.717 156.219 408.703 161.157C402.026 166.641 394.995 172.241 391.568 179.991C391.153 180.93 389.564 180.293 389.979 179.356C395.94 165.871 411.711 159.309 420.18 147.439C424.133 141.9 426.261 135.252 423.818 128.819C421.682 123.193 417.047 118.721 413.136 114.067C409.03 109.18 406.042 103.953 404.872 97.8607C403.675 91.6288 404.177 85.1944 405.35 78.9927C407.996 65.0064 413.459 51.3319 420.771 38.799C429.175 24.3934 440.245 11.3925 453.501 0.358858C454.322 -0.323747 455.334 0.954037 454.519 1.63218Z" fill="white"/>
<path d="M409.056 67.39C403.839 65.7442 399.438 62.4764 396.641 58.1704C393.845 53.8643 392.833 48.8004 393.788 43.8829C393.985 42.8885 395.705 43.1182 395.507 44.1139C394.609 48.6917 395.552 53.4087 398.165 57.4137C400.779 61.4186 404.891 64.4478 409.76 65.9543C410.817 66.2828 410.108 67.7167 409.056 67.39Z" fill="white"/>
<path d="M411.756 110.42C421.975 106.068 430.004 98.3966 434.24 88.9353C434.658 87.9976 436.247 88.6342 435.829 89.5708C431.4 99.409 423.028 107.377 412.383 111.884C411.368 112.313 410.747 110.846 411.756 110.42Z" fill="white"/>
<path d="M430.618 26.0151C432.49 27.032 434.612 27.6129 436.794 27.7057C438.976 27.7985 441.15 27.4003 443.119 26.5469C444.128 26.1065 444.747 27.5739 443.746 28.0114C441.565 28.9452 439.164 29.3823 436.753 29.2846C434.342 29.1869 431.994 28.5573 429.915 27.4509C429.709 27.3614 429.549 27.2046 429.467 27.0122C429.384 26.8199 429.386 26.6064 429.472 26.4153C429.566 26.2256 429.739 26.0772 429.954 26.0022C430.169 25.9273 430.407 25.932 430.618 26.0151Z" fill="white"/>
<path d="M104.074 342.356L110.071 346.552L133.388 350.206L159.305 292.009C159.305 292.009 175.176 247.159 219.614 256.334L362.452 254.04C362.452 254.04 406.308 249.98 413.556 268.664C414.929 272.203 451.963 350.385 451.963 350.385L477.929 347.074L474.817 280.42L413.146 151.101L305.951 145.055L195.49 151.961L104.074 342.356Z" fill="#3F3D56"/>
<path d="M222.788 260.349C245.577 260.349 264.052 243.66 264.052 223.073C264.052 202.486 245.577 185.797 222.788 185.797C199.998 185.797 181.523 202.486 181.523 223.073C181.523 243.66 199.998 260.349 222.788 260.349Z" fill="#2F2E41"/>
<path d="M361.182 260.349C383.972 260.349 402.446 243.66 402.446 223.073C402.446 202.486 383.972 185.797 361.182 185.797C338.393 185.797 319.918 202.486 319.918 223.073C319.918 243.66 338.393 260.349 361.182 260.349Z" fill="#2F2E41"/>
<path d="M174.539 100.922L191.529 97.9122C191.529 97.9122 319.451 81.4235 400.308 100.922L394.192 116.406L180.253 115.259L174.539 100.922Z" fill="#E6E6E6"/>
<path d="M347.018 180.922H238.456C225.274 180.922 213.882 172.677 211.367 161.317L199.486 107.637C199.224 106.465 199.234 105.257 199.517 104.09C199.8 102.922 200.35 101.821 201.131 100.856C201.948 99.8436 202.986 98.9938 204.182 98.3592C205.378 97.7247 206.705 97.319 208.082 97.1672C265.339 90.747 322.035 90.736 376.598 97.1339C377.956 97.2841 379.264 97.6849 380.443 98.3116C381.621 98.9382 382.644 99.7772 383.448 100.776C384.224 101.727 384.775 102.812 385.067 103.964C385.359 105.116 385.385 106.309 385.144 107.47L374.177 160.985C371.81 172.537 360.387 180.922 347.018 180.922Z" fill="#0BA06E"/>
<path d="M126.246 109.66L126.719 101.979C126.792 100.782 127.186 99.619 127.866 98.5897C128.546 97.5604 129.492 96.6952 130.622 96.0682C137.477 92.2695 155.967 83.9059 179.563 88.2901C181.22 88.5999 182.731 89.3631 183.891 90.476C185.051 91.5889 185.804 92.9974 186.046 94.5102L186.678 98.5072L126.246 109.66Z" fill="#3F3D56"/>
<path d="M458.991 109.66L398.559 98.507L399.574 92.0856C399.691 91.3273 400.056 90.618 400.623 90.0489C401.19 89.4797 401.932 89.0767 402.755 88.8917C429.967 82.7227 450.796 93.6781 456.532 97.1828C457.077 97.5167 457.529 97.9591 457.854 98.4759C458.179 98.9927 458.368 99.57 458.406 100.163L458.991 109.66Z" fill="#3F3D56"/>
<path d="M107.06 347.365C105.604 347.379 104.173 347.016 102.939 346.318C86.7575 337.782 76.6696 322.141 72.9781 299.84C69.9288 281.419 71.2022 258.298 76.7626 231.118C86.6208 182.931 107.283 134.765 115.709 116.293C116.825 113.855 118.559 111.688 120.772 109.966C122.986 108.244 125.615 107.016 128.45 106.381C145.82 102.521 176.143 96.0469 184.062 96.0469C194.915 96.0469 200.786 105.275 200.845 105.369L200.877 105.445L210.408 142.779V143.317C215.666 159.388 211.759 170.996 207.553 177.906C202.988 185.405 197.081 189.149 197.022 189.186C187.747 195.565 172.635 216.114 157.595 242.808C141.967 270.548 130.381 297.92 126.604 316.029C121.981 338.193 115.205 344.979 110.334 346.768C109.296 347.157 108.184 347.36 107.06 347.365Z" fill="#E6E6E6"/>
<path d="M343.438 176.333H240.862C234.808 176.326 228.944 174.42 224.273 170.941C219.601 167.462 216.412 162.625 215.25 157.258L204.024 105.051C203.774 103.895 203.79 102.706 204.07 101.556C204.349 100.406 204.887 99.3199 205.649 98.365C206.411 97.41 207.382 96.6064 208.502 96.0038C209.622 95.4011 210.866 95.0122 212.159 94.8611C266.262 88.617 319.835 88.6063 371.391 94.8286C372.666 94.9853 373.892 95.3736 374.996 95.9699C376.099 96.5662 377.058 97.3583 377.814 98.2984C378.57 99.2385 379.107 100.307 379.393 101.44C379.68 102.573 379.709 103.746 379.48 104.889L369.117 156.936C368.038 162.378 364.874 167.303 360.179 170.85C355.484 174.396 349.558 176.337 343.438 176.333Z" fill="#E6E6E6"/>
<path d="M478.181 347.366C477.056 347.361 475.943 347.158 474.904 346.768C470.033 344.979 463.257 338.193 458.634 316.029C454.857 297.92 443.272 270.548 427.643 242.808C412.603 216.114 397.492 195.565 388.205 189.178C388.157 189.149 382.25 185.405 377.685 177.906C373.479 170.996 369.573 159.388 374.83 143.317L374.838 142.714L384.371 105.405L384.393 105.369C384.452 105.275 390.324 96.0469 401.176 96.0469C409.095 96.0469 439.418 102.521 456.788 106.381C459.623 107.017 462.253 108.245 464.466 109.966C466.679 111.688 468.413 113.855 469.53 116.293C477.956 134.765 498.617 182.931 508.476 231.118C514.036 258.298 515.309 281.419 512.26 299.84C508.569 322.141 498.481 337.782 482.277 346.331C481.049 347.022 479.628 347.381 478.181 347.366Z" fill="#E6E6E6"/>
<path d="M222.786 239.13C236.46 239.13 247.544 229.116 247.544 216.764C247.544 204.412 236.46 194.398 222.786 194.398C209.112 194.398 198.027 204.412 198.027 216.764C198.027 229.116 209.112 239.13 222.786 239.13Z" fill="#3F3D56"/>
<path d="M222.787 231.674C231.903 231.674 239.293 224.999 239.293 216.764C239.293 208.529 231.903 201.854 222.787 201.854C213.671 201.854 206.281 208.529 206.281 216.764C206.281 224.999 213.671 231.674 222.787 231.674Z" fill="#2F2E41"/>
<path d="M361.18 239.13C374.854 239.13 385.939 229.116 385.939 216.764C385.939 204.412 374.854 194.398 361.18 194.398C347.507 194.398 336.422 204.412 336.422 216.764C336.422 229.116 347.507 239.13 361.18 239.13Z" fill="#3F3D56"/>
<path d="M361.181 231.674C370.297 231.674 377.687 224.999 377.687 216.764C377.687 208.529 370.297 201.854 361.181 201.854C352.066 201.854 344.676 208.529 344.676 216.764C344.676 224.999 352.066 231.674 361.181 231.674Z" fill="#2F2E41"/>
<path d="M276.748 189.81C277.8 189.81 278.653 189.04 278.653 188.09C278.653 187.139 277.8 186.369 276.748 186.369C275.696 186.369 274.844 187.139 274.844 188.09C274.844 189.04 275.696 189.81 276.748 189.81Z" fill="#2F2E41"/>
<path d="M285.002 189.81C286.054 189.81 286.907 189.04 286.907 188.09C286.907 187.139 286.054 186.369 285.002 186.369C283.95 186.369 283.098 187.139 283.098 188.09C283.098 189.04 283.95 189.81 285.002 189.81Z" fill="#2F2E41"/>
<path d="M281.19 196.119C282.241 196.119 283.094 195.348 283.094 194.398C283.094 193.448 282.241 192.678 281.19 192.678C280.138 192.678 279.285 193.448 279.285 194.398C279.285 195.348 280.138 196.119 281.19 196.119Z" fill="#2F2E41"/>
<path d="M288.811 196.119C289.863 196.119 290.715 195.348 290.715 194.398C290.715 193.448 289.863 192.678 288.811 192.678C287.759 192.678 286.906 193.448 286.906 194.398C286.906 195.348 287.759 196.119 288.811 196.119Z" fill="#2F2E41"/>
<path d="M296.428 196.119C297.48 196.119 298.332 195.348 298.332 194.398C298.332 193.448 297.48 192.678 296.428 192.678C295.376 192.678 294.523 193.448 294.523 194.398C294.523 195.348 295.376 196.119 296.428 196.119Z" fill="#2F2E41"/>
<path d="M304.045 196.119C305.097 196.119 305.95 195.348 305.95 194.398C305.95 193.448 305.097 192.678 304.045 192.678C302.993 192.678 302.141 193.448 302.141 194.398C302.141 195.348 302.993 196.119 304.045 196.119Z" fill="#2F2E41"/>
<path d="M293.252 189.81C294.304 189.81 295.157 189.04 295.157 188.09C295.157 187.139 294.304 186.369 293.252 186.369C292.2 186.369 291.348 187.139 291.348 188.09C291.348 189.04 292.2 189.81 293.252 189.81Z" fill="#2F2E41"/>
<path d="M301.506 189.81C302.558 189.81 303.411 189.04 303.411 188.09C303.411 187.139 302.558 186.369 301.506 186.369C300.454 186.369 299.602 187.139 299.602 188.09C299.602 189.04 300.454 189.81 301.506 189.81Z" fill="#2F2E41"/>
<path d="M309.76 189.81C310.812 189.81 311.664 189.04 311.664 188.09C311.664 187.139 310.812 186.369 309.76 186.369C308.708 186.369 307.855 187.139 307.855 188.09C307.855 189.04 308.708 189.81 309.76 189.81Z" fill="#2F2E41"/>
<path d="M300.87 241.136H284.365C283.607 241.136 282.88 240.864 282.345 240.38C281.809 239.896 281.508 239.24 281.508 238.555C281.508 237.871 281.809 237.214 282.345 236.73C282.88 236.246 283.607 235.975 284.365 235.975H300.87C301.628 235.975 302.355 236.246 302.89 236.73C303.426 237.214 303.727 237.871 303.727 238.555C303.727 239.24 303.426 239.896 302.89 240.38C302.355 240.864 301.628 241.136 300.87 241.136Z" fill="#2F2E41"/>
<path d="M191.579 128.957C190.514 128.954 189.481 128.628 188.647 128.029C187.812 127.431 187.225 126.596 186.981 125.66L184.449 115.952C184.163 114.848 184.373 113.687 185.034 112.724C185.694 111.76 186.752 111.073 187.973 110.813C189.194 110.553 190.48 110.742 191.547 111.338C192.614 111.934 193.376 112.888 193.665 113.991L196.196 123.699C196.359 124.327 196.362 124.981 196.206 125.611C196.05 126.24 195.739 126.83 195.295 127.336C194.851 127.842 194.286 128.25 193.642 128.531C192.999 128.811 192.294 128.957 191.579 128.957Z" fill="#3F3D56"/>
<path d="M394.292 128.383C393.578 128.383 392.873 128.237 392.229 127.957C391.586 127.676 391.021 127.267 390.577 126.762C390.133 126.256 389.821 125.666 389.665 125.036C389.509 124.407 389.513 123.753 389.676 123.125L392.207 113.417C392.496 112.314 393.258 111.359 394.325 110.764C395.392 110.168 396.678 109.979 397.899 110.239C399.12 110.499 400.177 111.186 400.838 112.15C401.499 113.113 401.709 114.274 401.422 115.378L398.891 125.086C398.646 126.022 398.06 126.857 397.225 127.455C396.391 128.053 395.358 128.38 394.292 128.383Z" fill="#3F3D56"/>
<path d="M156.655 157.612C155.097 157.612 153.577 157.179 152.302 156.371L146.988 153.011C145.989 152.378 145.172 151.537 144.609 150.559C144.045 149.581 143.75 148.495 143.75 147.392V137.102C143.753 135.036 144.662 133.055 146.28 131.594C147.897 130.133 150.09 129.311 152.378 129.309H160.516C162.803 129.311 164.996 130.133 166.614 131.594C168.231 133.055 169.141 135.036 169.143 137.102V147.494C169.141 148.568 168.861 149.626 168.324 150.585C167.788 151.544 167.011 152.376 166.055 153.014L161.159 156.274C159.854 157.143 158.276 157.612 156.655 157.612Z" fill="#3F3D56"/>
<path d="M160.516 195.258H152.378C150.09 195.256 147.897 194.434 146.28 192.973C144.662 191.512 143.753 189.531 143.75 187.464V177.174C143.75 176.072 144.045 174.985 144.609 174.007C145.172 173.029 145.989 172.188 146.988 171.556L152.302 168.196C153.603 167.372 155.158 166.938 156.748 166.956C158.337 166.973 159.88 167.441 161.159 168.293L166.055 171.552C167.011 172.191 167.788 173.023 168.324 173.982C168.861 174.94 169.141 175.999 169.143 177.073V187.464C169.141 189.531 168.231 191.512 166.614 192.973C164.996 194.434 162.803 195.256 160.516 195.258Z" fill="#3F3D56"/>
<path d="M185.911 173.754H174.52C173.299 173.753 172.097 173.487 171.014 172.978C169.931 172.469 169 171.731 168.3 170.828L164.581 166.028C163.669 164.853 163.188 163.448 163.208 162.012C163.227 160.577 163.745 159.183 164.688 158.027L168.296 153.605C169.003 152.741 169.924 152.039 170.986 151.554C172.047 151.07 173.219 150.816 174.408 150.814H185.911C188.198 150.817 190.391 151.639 192.009 153.1C193.626 154.561 194.536 156.542 194.538 158.608V165.96C194.536 168.026 193.626 170.007 192.009 171.468C190.391 172.929 188.198 173.751 185.911 173.754Z" fill="#3F3D56"/>
<path d="M137.741 173.754H126.35C124.063 173.751 121.87 172.929 120.252 171.468C118.635 170.007 117.725 168.026 117.723 165.96V158.608C117.725 156.542 118.635 154.561 120.252 153.1C121.87 151.639 124.063 150.817 126.35 150.814H137.853C139.042 150.816 140.214 151.07 141.276 151.554C142.337 152.039 143.258 152.741 143.965 153.605L147.573 158.027C148.516 159.183 149.034 160.577 149.054 162.012C149.073 163.448 148.593 164.853 147.68 166.028L143.961 170.828C143.261 171.731 142.33 172.469 141.247 172.978C140.164 173.487 138.962 173.753 137.741 173.754Z" fill="#3F3D56"/>
<path d="M429.109 146.226C437.173 146.226 443.71 140.32 443.71 133.036C443.71 125.751 437.173 119.846 429.109 119.846C421.045 119.846 414.508 125.751 414.508 133.036C414.508 140.32 421.045 146.226 429.109 146.226Z" fill="#3F3D56"/>
<path d="M461.484 176.62C469.548 176.62 476.085 170.715 476.085 163.43C476.085 156.146 469.548 150.24 461.484 150.24C453.42 150.24 446.883 156.146 446.883 163.43C446.883 170.715 453.42 176.62 461.484 176.62Z" fill="#3F3D56"/>
<path d="M429.109 205.294C437.173 205.294 443.71 199.389 443.71 192.104C443.71 184.819 437.173 178.914 429.109 178.914C421.045 178.914 414.508 184.819 414.508 192.104C414.508 199.389 421.045 205.294 429.109 205.294Z" fill="#3F3D56"/>
<path d="M396.73 176.046C404.794 176.046 411.331 170.141 411.331 162.856C411.331 155.571 404.794 149.666 396.73 149.666C388.666 149.666 382.129 155.571 382.129 162.856C382.129 170.141 388.666 176.046 396.73 176.046Z" fill="#3F3D56"/>
<path d="M461.483 172.032C459.6 172.032 457.759 171.528 456.193 170.583C454.627 169.638 453.407 168.294 452.686 166.722C451.965 165.15 451.776 163.421 452.144 161.752C452.511 160.083 453.418 158.551 454.75 157.348C456.082 156.145 457.779 155.325 459.626 154.993C461.473 154.662 463.388 154.832 465.128 155.483C466.868 156.134 468.355 157.237 469.401 158.651C470.447 160.066 471.006 161.729 471.006 163.43C471.003 165.711 469.999 167.897 468.214 169.51C466.429 171.123 464.008 172.03 461.483 172.032ZM461.483 155.975C459.851 155.975 458.256 156.412 456.898 157.232C455.541 158.051 454.483 159.215 453.859 160.577C453.234 161.94 453.071 163.439 453.389 164.885C453.708 166.331 454.494 167.659 455.648 168.702C456.802 169.745 458.273 170.455 459.873 170.742C461.474 171.03 463.134 170.882 464.642 170.318C466.15 169.754 467.439 168.798 468.345 167.572C469.252 166.346 469.736 164.905 469.736 163.43C469.734 161.454 468.864 159.559 467.316 158.161C465.769 156.763 463.671 155.977 461.483 155.975Z" fill="#E6E6E6"/>
<path d="M439.313 139.435L420.176 139.191L429.979 124.342L439.313 139.435ZM422.393 138.072L437.132 138.26L429.943 126.636L422.393 138.072Z" fill="#E6E6E6"/>
<path d="M404.349 169.738H389.113V155.975H404.349V169.738ZM390.383 168.591H403.08V157.122H390.383V168.591Z" fill="#E6E6E6"/>
<path d="M436.988 198.027L430.008 191.733L436.164 186.183L435.266 185.371L429.109 190.922L422.952 185.371L422.055 186.183L428.21 191.733L421.23 198.027L422.128 198.839L429.109 192.544L436.091 198.839L436.988 198.027Z" fill="#E6E6E6"/>
<path d="M156.636 42.345C154.752 42.345 152.911 41.8405 151.345 40.8952C149.779 39.95 148.559 38.6065 147.838 37.0347C147.117 35.4629 146.929 33.7333 147.296 32.0646C147.664 30.3959 148.571 28.8632 149.902 27.6601C151.234 26.4571 152.931 25.6378 154.778 25.3059C156.625 24.974 158.54 25.1444 160.28 25.7954C162.02 26.4465 163.507 27.5491 164.553 28.9637C165.6 30.3783 166.158 32.0414 166.158 33.7428C166.155 36.0234 165.151 38.2099 163.366 39.8226C161.581 41.4353 159.16 42.3424 156.636 42.345ZM156.636 26.2876C155.004 26.2876 153.408 26.7248 152.051 27.544C150.694 28.3632 149.636 29.5275 149.011 30.8898C148.387 32.2521 148.223 33.7511 148.542 35.1972C148.86 36.6434 149.646 37.9718 150.8 39.0144C151.954 40.0571 153.425 40.7671 155.026 41.0548C156.627 41.3424 158.286 41.1948 159.794 40.6305C161.302 40.0662 162.591 39.1107 163.498 37.8847C164.405 36.6587 164.889 35.2173 164.889 33.7428C164.886 31.7662 164.016 29.8712 162.469 28.4736C160.922 27.0759 158.824 26.2898 156.636 26.2876Z" fill="#E6E6E6"/>
<path d="M135.094 28.0994L115.957 27.8549L125.76 13.0059L135.094 28.0994ZM118.174 26.736L132.913 26.9244L125.724 15.2998L118.174 26.736Z" fill="#E6E6E6"/>
<path d="M106.931 49.0213H91.6953V35.2578H106.931V49.0213ZM92.965 47.8743H105.662V36.4048H92.965V47.8743Z" fill="#E6E6E6"/>
<path d="M120.711 74.6471L113.731 68.3538L119.886 62.8042L118.989 61.9922L112.832 67.5435L106.675 61.9922L105.778 62.8042L111.933 68.3538L104.953 74.6471L105.85 75.4592L112.832 69.1641L119.814 75.4592L120.711 74.6471Z" fill="#E6E6E6"/>
<path opacity="0.2" d="M550.68 197.553L526.039 214.306L553.854 203.288L550.68 197.553Z" fill="black"/>
<path d="M94.869 218.198L63.7621 219.345L59.9531 200.42L86.6162 192.965L94.869 218.198Z" fill="#A0616A"/>
<path d="M83.4304 171.817L76.4922 165.435L84.9993 153.685L99.5598 131.79C99.0841 130.847 98.9366 129.795 99.1367 128.775C99.3369 127.754 99.8753 126.812 100.681 126.074C101.486 125.336 102.521 124.836 103.648 124.641C104.775 124.445 105.941 124.563 106.991 124.98C108.042 125.396 108.929 126.09 109.533 126.971C110.137 127.852 110.431 128.879 110.376 129.914C110.321 130.949 109.919 131.945 109.224 132.769C108.528 133.594 107.572 134.208 106.482 134.531L94.4636 157.906L83.4304 171.817Z" fill="#A0616A"/>
<path d="M75.7453 186.385C74.9306 187.525 73.7699 188.428 72.4019 188.988C71.0338 189.548 69.5163 189.739 68.0308 189.541C66.6168 189.39 65.2824 188.869 64.1912 188.043C63.1001 187.217 62.2998 186.121 61.8887 184.889C61.5858 184.016 61.4976 183.092 61.6302 182.185C61.7629 181.277 62.1131 180.406 62.6566 179.633C67.2981 172.565 75.8585 163.23 75.9443 163.137L76.0806 162.988L90.5188 165.814L75.7453 186.385Z" fill="#0BA06E"/>
<path d="M87.455 342.809L96.0818 342.809L100.185 312.75L87.4531 312.751L87.455 342.809Z" fill="#A0616A"/>
<path d="M85.2539 340.264L102.243 340.264H102.244C105.115 340.264 107.869 341.294 109.9 343.128C111.93 344.963 113.071 347.45 113.071 350.044V350.362L85.2544 350.363L85.2539 340.264Z" fill="#2F2E41"/>
<path d="M20.2812 339.436L28.8109 340.601L37.8433 311.434L26.6613 309.715L20.2812 339.436Z" fill="#A0616A"/>
<path d="M18.5261 336.623L35.3247 338.917L35.3253 338.917C38.1645 339.305 40.7167 340.695 42.4208 342.783C44.1249 344.871 44.8412 347.485 44.4122 350.049L44.3596 350.364L16.8555 346.608L18.5261 336.623Z" fill="#2F2E41"/>
<path d="M62.4916 213.609L92.3288 209.021L101.561 226.212L101.913 338.406L85.5371 338.313L78.6917 247.507L35.0643 331.413L17.4727 329.507L55.8225 239.561C55.8225 239.561 53.7115 223.669 60.3963 215.724L62.4916 213.609Z" fill="#2F2E41"/>
<path d="M51.4129 179.74C50.9569 178.503 50.9084 177.172 51.2734 175.911C51.6385 174.649 52.4012 173.51 53.4691 172.632L57.7095 169.15L69.664 167.331L77.1388 166.104L89.1528 197.552L59.9738 209.662C57.413 209.163 56.3902 207.897 57.8802 205.381L51.4129 179.74Z" fill="#0BA06E"/>
<path d="M78.1914 190.353L86.5384 185.541L97.5051 195.49L118.206 212.888C119.326 212.663 120.495 212.75 121.559 213.138C122.623 213.526 123.532 214.197 124.165 215.061C124.798 215.926 125.125 216.944 125.104 217.98C125.082 219.016 124.713 220.022 124.045 220.865C123.377 221.708 122.441 222.347 121.362 222.699C120.283 223.051 119.111 223.099 118.001 222.836C116.891 222.573 115.895 222.012 115.146 221.227C114.397 220.441 113.929 219.469 113.805 218.439L90.9755 202.982L78.1914 190.353Z" fill="#A0616A"/>
<path d="M64.0055 180.545C62.9398 179.589 62.2013 178.377 61.8783 177.052C61.5553 175.727 61.6615 174.347 62.1841 173.075C62.6403 171.857 63.4801 170.785 64.6005 169.992C65.721 169.198 67.0735 168.718 68.492 168.608C69.5011 168.522 70.5191 168.635 71.475 168.94C72.4308 169.245 73.3015 169.734 74.0263 170.375C80.7213 175.939 89.0604 185.436 89.1437 185.531L89.2761 185.682L83.2291 197.858L64.0055 180.545Z" fill="#0BA06E"/>
<path d="M64.4195 163.506C71.6669 163.506 77.5421 158.198 77.5421 151.651C77.5421 145.104 71.6669 139.797 64.4195 139.797C57.1721 139.797 51.2969 145.104 51.2969 151.651C51.2969 158.198 57.1721 163.506 64.4195 163.506Z" fill="#A0616A"/>
<path d="M53.7954 168.539C51.7605 168.539 49.7274 168.427 47.7074 168.204L47.4305 168.173L45.3168 157.807C44.4203 153.413 45.4198 148.875 48.1102 145.125C50.8006 141.375 54.9777 138.698 59.7843 137.643C60.1051 137.57 60.442 137.578 60.758 137.666C61.0741 137.754 61.3571 137.92 61.5758 138.144L62.0799 137.985C64.01 137.377 66.0537 137.119 68.0945 137.224C70.1352 137.33 72.133 137.797 73.9736 138.6C75.8143 139.403 77.4619 140.526 78.8223 141.904C80.1827 143.282 81.2293 144.889 81.9023 146.632L82.0272 146.956L78.663 148.016C77.6148 148.346 76.6613 148.883 75.8717 149.588C75.0822 150.293 74.4765 151.148 74.0988 152.091C73.7211 153.034 73.5808 154.042 73.6882 155.04C73.7955 156.038 74.1478 157.002 74.7194 157.862L78.1591 163.034L77.7929 163.2C70.369 166.658 62.1478 168.487 53.7954 168.539Z" fill="#2F2E41"/>
<path d="M504.63 218.145C504.781 217.482 505.092 216.857 505.54 216.315C505.988 215.772 506.562 215.325 507.222 215.005C507.882 214.685 508.612 214.499 509.36 214.461C510.108 214.423 510.856 214.534 511.552 214.785L523.487 202.359L526.04 210.591L514.314 221.129C513.769 222.156 512.826 222.968 511.663 223.409C510.5 223.85 509.198 223.891 508.005 223.523C506.811 223.155 505.808 222.404 505.186 221.413C504.564 220.422 504.366 219.259 504.63 218.145Z" fill="#FFB6B6"/>
<path d="M557.886 163.516L562.775 163.277L563.512 166.085C563.512 166.085 563.439 169.68 558.981 177.152C554.523 184.625 519.981 217.895 519.981 217.895L512.5 210.226L530.99 193.021L542.187 174.989L557.886 163.516Z" fill="#0BA06E"/>
<path d="M0.791644 351.001H581.208C581.418 351.001 581.62 350.925 581.768 350.791C581.917 350.657 582 350.475 582 350.285C582 350.096 581.917 349.914 581.768 349.78C581.62 349.646 581.418 349.57 581.208 349.57H0.791644C0.581689 349.57 0.380334 349.646 0.231873 349.78C0.083412 349.914 0 350.096 0 350.285C0 350.475 0.083412 350.657 0.231873 350.791C0.380334 350.925 0.581689 351.001 0.791644 351.001Z" fill="#CCCCCC"/>
</g>
<defs>
<clipPath id="clip0_181_286">
<rect width="582" height="351" fill="white"/>
</clipPath>
</defs>
</svg>