<svg width="60" height="60" viewBox="0 0 80 80" fill="none" xmlns="http://www.w3.org/2000/svg">
<rect x="0.5" y="0.5" width="79" height="79" rx="39.5" fill="#1B75E8" fill-opacity="0.1"/>
<rect x="0.5" y="0.5" width="79" height="79" rx="39.5" stroke="#1B75E8" stroke-dasharray="3 2"/>
<g clip-path="url(#clip0_216_96)">
<path d="M40 20C37.2463 20 35 22.2462 35 25C35 27.5425 36.915 29.6125 39.375 29.9225V31.875C39.375 32.2025 39.6725 32.5 40 32.5H42.5C42.9662 32.5 43.2412 32.63 43.4375 32.8512C43.6338 33.0725 43.75 33.3825 43.75 33.7113C43.75 34.0387 43.6338 34.3875 43.4375 34.61C43.2412 34.8312 42.9662 34.96 42.5 34.96H37.5C36.7213 34.96 36.05 35.3025 35.625 35.7812C35.2 36.26 35 36.855 35 37.4613C35 38.0662 35.2 38.7 35.625 39.18C36.05 39.6588 36.7213 39.9613 37.5 39.9613H39.375V41.1725H29.8438C29.7772 41.1745 29.7113 41.1872 29.6488 41.21C29.555 41.21 29.4688 41.175 29.375 41.1725C29.3621 41.1721 29.3492 41.1721 29.3363 41.1725C24.3875 41.1725 20 45.6038 20 50.585C20 55.5675 24.3875 60 29.3363 60C33.0487 60 36.5238 57.585 37.93 54.14H42.07C43.4775 57.585 46.9525 59.995 50.6637 60C55.6125 60 60 55.5662 60 50.5863C60 45.605 55.6125 41.1712 50.6637 41.1712C50.5763 41.1725 50.4775 41.2075 50.3913 41.2113H50.3512C50.3383 41.2108 50.3254 41.2108 50.3125 41.2113C50.2624 41.1912 50.2098 41.1778 50.1562 41.1712H40.625V39.3375C40.6188 39.1737 40.551 39.0183 40.4351 38.9024C40.3192 38.7865 40.1638 38.7187 40 38.7125H37.5C37.0338 38.7125 36.7588 38.5425 36.5625 38.3212C36.3578 38.0823 36.2468 37.7771 36.25 37.4625C36.25 37.1338 36.3662 36.825 36.5625 36.6025C36.7588 36.3813 37.0338 36.2125 37.5 36.2125H42.5C43.2787 36.2125 43.95 35.91 44.375 35.4313C44.8 34.9513 45 34.3188 45 33.7125C45 33.1063 44.8 32.5125 44.375 32.0325C43.95 31.5525 43.2787 31.25 42.5 31.25H40.625V29.9212C43.085 29.6125 45 27.5425 45 25C45 22.2462 42.7537 20 40 20ZM40 21.25C42.0788 21.25 43.75 22.9213 43.75 25C43.7515 25.9683 43.3781 26.8995 42.7082 27.5986C42.0382 28.2976 41.1237 28.7103 40.1562 28.75H39.8438C38.8763 28.7103 37.9618 28.2976 37.2918 27.5986C36.6219 26.8995 36.2485 25.9683 36.25 25C36.25 22.9213 37.9212 21.25 40 21.25ZM41.445 23.0863L39.375 25.1562L38.555 24.3363L37.695 25.195L38.945 26.445L39.375 26.9138L39.805 26.445L42.305 23.945L41.445 23.0863ZM29.3375 42.4225C29.4875 42.4225 29.6175 42.4475 29.7663 42.46C29.8333 42.4581 29.8995 42.4454 29.9625 42.4225H50.0788C50.1287 42.4412 50.1825 42.455 50.235 42.46C50.385 42.4475 50.515 42.4225 50.665 42.4225C54.8475 42.4225 58.7513 46.3575 58.7513 50.585C58.75 54.8162 54.8462 58.75 50.6637 58.75C47.3762 58.75 44.145 56.4525 43.0475 53.32C43.0044 53.1975 42.9251 53.091 42.8203 53.0145C42.7154 52.938 42.5898 52.895 42.46 52.8913H37.5387C37.4092 52.8952 37.2839 52.9383 37.1792 53.0148C37.0746 53.0914 36.9956 53.1977 36.9525 53.32C35.855 56.4525 32.6225 58.745 29.3363 58.75C25.1537 58.75 21.25 54.815 21.25 50.5863C21.25 46.3575 25.1537 42.4212 29.3363 42.4212L29.3375 42.4225ZM50.7038 44.4925C49.5037 44.4925 48.5163 45.4788 48.5163 46.68C48.5163 47.88 49.5037 48.8675 50.7038 48.8675C51.9037 48.8675 52.8913 47.88 52.8913 46.68C52.8913 45.4788 51.9037 44.4925 50.7038 44.4925ZM50.7038 45.7425C51.2237 45.7425 51.6413 46.1488 51.6413 46.68C51.6413 47.21 51.2237 47.6175 50.7038 47.6175C50.5803 47.6187 50.4579 47.5952 50.3436 47.5485C50.2293 47.5018 50.1255 47.4328 50.0382 47.3455C49.9509 47.2582 49.8819 47.1544 49.8352 47.0401C49.7885 46.9259 49.7651 46.8034 49.7663 46.68C49.7662 46.1488 50.185 45.7425 50.7038 45.7425ZM28.8687 46.015C28.8152 46.0216 28.7626 46.035 28.7125 46.055C28.5768 46.0936 28.4574 46.1756 28.3727 46.2885C28.2881 46.4013 28.2428 46.5389 28.2437 46.68V49.9613H25C24.9123 49.9594 24.8252 49.9753 24.7438 50.008C24.6624 50.0406 24.5885 50.0895 24.5265 50.1515C24.4645 50.2135 24.4156 50.2874 24.383 50.3688C24.3503 50.4502 24.3344 50.5373 24.3363 50.625C24.3523 50.7885 24.4297 50.9399 24.5528 51.0486C24.676 51.1574 24.8358 51.2155 25 51.2113H28.2425V54.4925C28.2465 54.6578 28.3134 54.8154 28.4295 54.9331C28.5456 55.0509 28.7023 55.1199 28.8675 55.1263C29.0327 55.1199 29.1894 55.0509 29.3055 54.9331C29.4216 54.8154 29.4885 54.6578 29.4925 54.4925V51.2113H32.7338C32.8993 51.2076 33.0572 51.1408 33.1752 51.0247C33.2932 50.9085 33.3624 50.7517 33.3687 50.5863C33.3624 50.421 33.2934 50.2644 33.1756 50.1483C33.0579 50.0321 32.9003 49.9653 32.735 49.9613H29.4925V46.68C29.4966 46.5093 29.4333 46.3438 29.3163 46.2194C29.1994 46.0949 29.0394 46.0215 28.8687 46.015ZM37.2275 48.0863C37.065 48.1284 36.9245 48.2304 36.834 48.3718C36.7436 48.5132 36.71 48.6836 36.74 48.8488C36.7821 49.011 36.8839 49.1513 37.0251 49.2417C37.1662 49.3321 37.3363 49.3659 37.5013 49.3363H38.7513C38.9166 49.3322 39.0741 49.2654 39.1919 49.1492C39.3096 49.0331 39.3787 48.8765 39.385 48.7113C39.3787 48.546 39.3096 48.3894 39.1919 48.2733C39.0741 48.1571 38.9166 48.0903 38.7513 48.0863C38.2513 48.0837 37.7075 48.0863 37.2275 48.0863ZM40.9775 48.0863C40.815 48.1284 40.6745 48.2304 40.584 48.3718C40.4936 48.5132 40.46 48.6836 40.49 48.8488C40.5321 49.011 40.6339 49.1513 40.7751 49.2417C40.9162 49.3321 41.0863 49.3659 41.2512 49.3363H42.5012C42.6666 49.3322 42.8241 49.2654 42.9419 49.1492C43.0596 49.0331 43.1287 48.8765 43.135 48.7113C43.1287 48.546 43.0596 48.3894 42.9419 48.2733C42.8241 48.1571 42.6666 48.0903 42.5012 48.0863H40.9775ZM46.8375 48.3988C45.6375 48.3988 44.65 49.385 44.65 50.5863C44.65 51.7862 45.6375 52.7738 46.8375 52.7738C48.0375 52.7738 49.025 51.7862 49.025 50.5863C49.025 49.385 48.0375 48.3988 46.8375 48.3988ZM54.5713 48.3988C53.3713 48.3988 52.3838 49.385 52.3838 50.5863C52.3838 51.7862 53.3713 52.7738 54.5713 52.7738C55.7712 52.7738 56.7588 51.7862 56.7588 50.5863C56.7588 49.385 55.7712 48.3988 54.5713 48.3988ZM46.8375 49.6488C47.3562 49.6488 47.775 50.055 47.775 50.5863C47.775 51.1162 47.3562 51.5238 46.8375 51.5238C46.7141 51.5249 46.5916 51.5015 46.4774 51.4548C46.3631 51.4081 46.2593 51.3391 46.172 51.2518C46.0847 51.1645 46.0157 51.0607 45.969 50.9464C45.9223 50.8321 45.8988 50.7097 45.9 50.5863C45.9 50.055 46.3175 49.6488 46.8375 49.6488ZM54.5713 49.6488C55.0913 49.6488 55.5088 50.055 55.5088 50.5863C55.5088 51.1162 55.0913 51.5238 54.5713 51.5238C54.4478 51.5249 54.3254 51.5015 54.2111 51.4548C54.0968 51.4081 53.993 51.3391 53.9057 51.2518C53.8184 51.1645 53.7494 51.0607 53.7027 50.9464C53.656 50.8321 53.6326 50.7097 53.6338 50.5863C53.6338 50.055 54.0525 49.6488 54.5713 49.6488ZM50.705 52.305C49.505 52.305 48.5175 53.2912 48.5175 54.4925C48.5175 55.6925 49.505 56.68 50.705 56.68C51.905 56.68 52.8925 55.6925 52.8925 54.4925C52.8925 53.2912 51.905 52.305 50.705 52.305ZM50.705 53.555C51.2237 53.555 51.6425 53.9613 51.6425 54.4925C51.6425 55.0225 51.2237 55.43 50.705 55.43C50.5816 55.4312 50.4591 55.4077 50.3449 55.361C50.2306 55.3143 50.1268 55.2453 50.0395 55.158C49.9522 55.0707 49.8832 54.9669 49.8365 54.8526C49.7898 54.7384 49.7663 54.6159 49.7675 54.4925C49.7675 53.9613 50.185 53.555 50.705 53.555Z" fill="#1B75E8"/>
</g>
<defs>
<clipPath id="clip0_216_96">
<rect width="40" height="40" fill="white" transform="translate(20 20)"/>
</clipPath>
</defs>
</svg>